<svg width="24" height="25" viewBox="0 0 24 25" fill="none" xmlns="http://www.w3.org/2000/svg">
<path d="M23.295 4.47158C24.2325 3.51943 24.2325 1.97314 23.295 1.021C22.3575 0.0688477 20.835 0.0688477 19.8975 1.021L12 9.04951L4.09501 1.02861C3.15751 0.0764647 1.63501 0.0764647 0.69751 1.02861C-0.23999 1.98076 -0.23999 3.52705 0.69751 4.4792L8.60251 12.5001L0.70501 20.5286C-0.23249 21.4808 -0.23249 23.0271 0.70501 23.9792C1.64251 24.9313 3.16501 24.9313 4.10251 23.9792L12 15.9507L19.905 23.9716C20.8425 24.9237 22.365 24.9237 23.3025 23.9716C24.24 23.0194 24.24 21.4731 23.3025 20.521L15.3975 12.5001L23.295 4.47158Z" fill="white"/>
</svg>
