<svg width="6" height="10" viewBox="0 0 6 10" fill="none" xmlns="http://www.w3.org/2000/svg">
<path d="M1.86358 1.1363C1.57069 0.843403 1.09582 0.843403 0.802922 1.1363C0.510029 1.42919 0.510029 1.90406 0.802922 2.19696L1.86358 1.1363ZM4.66659 4.99996L5.19692 5.53029C5.33757 5.38964 5.41659 5.19887 5.41659 4.99996C5.41659 4.80105 5.33757 4.61028 5.19692 4.46963L4.66659 4.99996ZM0.802922 7.80296C0.510029 8.09586 0.510029 8.57073 0.802922 8.86362C1.09582 9.15652 1.57069 9.15652 1.86358 8.86362L0.802922 7.80296ZM0.802922 2.19696L4.13626 5.53029L5.19692 4.46963L1.86358 1.1363L0.802922 2.19696ZM4.13626 4.46963L0.802922 7.80296L1.86358 8.86362L5.19692 5.53029L4.13626 4.46963Z" fill="#003459"/>
</svg>
